HIERARCHY
ROOT Hips
{
	OFFSET 0.000000 83.214638 0.000000
	CHANNELS 6 Xposition Yposition Zposition Xrotation Yrotation Zrotation
	JOINT Pelvis
	{
		OFFSET 0.000000 0.000000 0.000000
		CHANNELS 3 Xrotation Yrotation Zrotation
		JOINT LeftUpLeg
		{
			OFFSET 8.479700 -4.795502 -0.379100
			CHANNELS 3 Xrotation Yrotation Zrotation
			JOINT LeftLeg
			{
				OFFSET 0.024144 -32.555107 0.112900
				CHANNELS 3 Xrotation Yrotation Zrotation
				JOINT LeftFoot
				{
					OFFSET -0.024144 -32.638630 -3.012600
					CHANNELS 3 Xrotation Yrotation Zrotation
					JOINT LeftToeBase
					{
						OFFSET 0.970200 -13.225400 11.864200
						CHANNELS 3 Xrotation Yrotation Zrotation
						End Site
						{
							OFFSET 0.000000 12.319262 0.000000
						}
					}
					JOINT LFootTongue
					{
						OFFSET 1.142400 -1.059800 6.665200
						CHANNELS 3 Xrotation Yrotation Zrotation
						End Site
						{
							OFFSET 0.000000 12.319262 0.000000
						}
					}
				}
				JOINT LeftPantLeg
				{
					OFFSET 0.918482 -16.533964 -2.284700
					CHANNELS 3 Xrotation Yrotation Zrotation
					End Site
					{
						OFFSET 0.350399 24.744368 0.000000
					}
				}
			}
		}
		JOINT RightUpLeg
		{
			OFFSET -8.479700 -4.795502 -0.379100
			CHANNELS 3 Xrotation Yrotation Zrotation
			JOINT RightLeg
			{
				OFFSET -0.023144 -32.555092 0.112900
				CHANNELS 3 Xrotation Yrotation Zrotation
				JOINT RightFoot
				{
					OFFSET 0.023144 -32.638641 -3.012700
					CHANNELS 3 Xrotation Yrotation Zrotation
					JOINT RightToeBase
					{
						OFFSET -0.970200 -13.225400 11.864200
						CHANNELS 3 Xrotation Yrotation Zrotation
						End Site
						{
							OFFSET 0.000000 12.319244 0.000000
						}
					}
					JOINT RFootTongue
					{
						OFFSET -1.142200 -1.059800 6.665200
						CHANNELS 3 Xrotation Yrotation Zrotation
						End Site
						{
							OFFSET 0.000000 12.319243 0.000000
						}
					}
				}
				JOINT RightPantLeg
				{
					OFFSET -0.919482 -16.533978 -2.284800
					CHANNELS 3 Xrotation Yrotation Zrotation
					End Site
					{
						OFFSET -0.350400 24.744419 0.000000
					}
				}
			}
		}
	}
	JOINT Spine
	{
		OFFSET 0.000000 7.722000 1.166200
		CHANNELS 3 Xrotation Yrotation Zrotation
		JOINT Spine1
		{
			OFFSET 0.000000 12.024101 0.248800
			CHANNELS 3 Xrotation Yrotation Zrotation
			JOINT Spine2
			{
				OFFSET 0.000000 11.502998 -0.491200
				CHANNELS 3 Xrotation Yrotation Zrotation
				JOINT Neck
				{
					OFFSET 0.000000 18.430702 -3.123100
					CHANNELS 3 Xrotation Yrotation Zrotation
					JOINT Head
					{
						OFFSET 0.000000 9.051102 1.034000
						CHANNELS 3 Xrotation Yrotation Zrotation
						JOINT HairB
						{
							OFFSET 0.208400 24.786102 24.822300
							CHANNELS 3 Xrotation Yrotation Zrotation
							End Site
							{
								OFFSET 0.000000 32.263779 0.000000
							}
						}
						JOINT HairA
						{
							OFFSET -7.081100 24.428299 23.196600
							CHANNELS 3 Xrotation Yrotation Zrotation
							End Site
							{
								OFFSET 0.000000 32.263779 0.000000
							}
						}
						JOINT Hat
						{
							OFFSET 16.728800 15.048294 -15.439601
							CHANNELS 3 Xrotation Yrotation Zrotation
							End Site
							{
								OFFSET 0.000000 32.263779 0.000000
							}
						}
					}
				}
				JOINT LeftShoulder
				{
					OFFSET 6.197800 13.665199 -4.064700
					CHANNELS 3 Xrotation Yrotation Zrotation
					JOINT LeftArm
					{
						OFFSET 7.778100 -0.187103 -1.709300
						CHANNELS 3 Xrotation Yrotation Zrotation
						JOINT LeftForeArm
						{
							OFFSET 22.049376 0.000000 0.000000
							CHANNELS 3 Xrotation Yrotation Zrotation
							JOINT LeftHand
							{
								OFFSET 23.009392 0.000000 0.000000
								CHANNELS 3 Xrotation Yrotation Zrotation
								JOINT LeftHandThumb1
								{
									OFFSET 3.507191 -2.063065 3.133727
									CHANNELS 3 Xrotation Yrotation Zrotation
									JOINT LeftHandThumb2
									{
										OFFSET 3.101337 -1.790558 1.790558
										CHANNELS 3 Xrotation Yrotation Zrotation
										JOINT LeftHandThumb3
										{
											OFFSET 3.058640 -1.765907 1.765906
											CHANNELS 3 Xrotation Yrotation Zrotation
											End Site
											{
												OFFSET -0.415260 3.926476 -0.049563
											}
										}
									}
								}
								JOINT LeftHandIndex1
								{
									OFFSET 11.334419 -0.901459 3.706815
									CHANNELS 3 Xrotation Yrotation Zrotation
									JOINT LeftHandIndex2
									{
										OFFSET 3.283112 0.000000 0.000000
										CHANNELS 3 Xrotation Yrotation Zrotation
										JOINT LeftHandIndex3
										{
											OFFSET 3.323853 0.000000 0.000000
											CHANNELS 3 Xrotation Yrotation Zrotation
											End Site
											{
												OFFSET -1.135597 3.097809 0.402452
											}
										}
									}
								}
								JOINT LeftHandMiddle1
								{
									OFFSET 11.335861 0.000000 0.000000
									CHANNELS 3 Xrotation Yrotation Zrotation
									JOINT LeftHandMiddle2
									{
										OFFSET 3.410492 0.000000 0.000000
										CHANNELS 3 Xrotation Yrotation Zrotation
										JOINT LeftHandMiddle3
										{
											OFFSET 3.312172 0.000000 0.000000
											CHANNELS 3 Xrotation Yrotation Zrotation
											End Site
											{
												OFFSET -1.150200 3.080154 0.400270
											}
										}
									}
								}
								JOINT LeftHandRing1
								{
									OFFSET 11.514786 -0.013176 -3.003090
									CHANNELS 3 Xrotation Yrotation Zrotation
									JOINT LeftHandRing2
									{
										OFFSET 3.053307 0.000000 0.000000
										CHANNELS 3 Xrotation Yrotation Zrotation
										JOINT LeftHandRing3
										{
											OFFSET 3.295807 0.000000 0.000000
											CHANNELS 3 Xrotation Yrotation Zrotation
											End Site
											{
												OFFSET -1.281006 3.013344 0.375733
											}
										}
									}
								}
								JOINT LeftHandPinky1
								{
									OFFSET 10.518692 -0.960396 -5.730441
									CHANNELS 3 Xrotation Yrotation Zrotation
									JOINT LeftHandPinky2
									{
										OFFSET 2.861649 0.000000 0.000000
										CHANNELS 3 Xrotation Yrotation Zrotation
										JOINT LeftHandPinky3
										{
											OFFSET 2.863380 0.000000 0.000000
											CHANNELS 3 Xrotation Yrotation Zrotation
											End Site
											{
												OFFSET -0.843597 2.711159 0.369971
											}
										}
									}
								}
							}
							JOINT LSleeve
							{
								OFFSET 6.676277 -0.344902 -1.011730
								CHANNELS 3 Xrotation Yrotation Zrotation
								End Site
								{
									OFFSET 0.000000 14.885353 0.000000
								}
							}
						}
					}
				}
				JOINT RightShoulder
				{
					OFFSET -6.197800 13.665199 -4.064700
					CHANNELS 3 Xrotation Yrotation Zrotation
					JOINT RightArm
					{
						OFFSET -7.778100 -0.187103 -1.709300
						CHANNELS 3 Xrotation Yrotation Zrotation
						JOINT RightForeArm
						{
							OFFSET -22.049376 0.000000 0.000000
							CHANNELS 3 Xrotation Yrotation Zrotation
							JOINT RightHand
							{
								OFFSET -23.009392 0.000000 0.000000
								CHANNELS 3 Xrotation Yrotation Zrotation
								JOINT RightHandThumb1
								{
									OFFSET -3.507191 -2.063065 3.133727
									CHANNELS 3 Xrotation Yrotation Zrotation
									JOINT RightHandThumb2
									{
										OFFSET -3.101337 -1.790558 1.790558
										CHANNELS 3 Xrotation Yrotation Zrotation
										JOINT RightHandThumb3
										{
											OFFSET -3.058640 -1.765907 1.765906
											CHANNELS 3 Xrotation Yrotation Zrotation
											End Site
											{
												OFFSET 0.415260 3.926476 -0.049563
											}
										}
									}
								}
								JOINT RightHandIndex1
								{
									OFFSET -11.334419 -0.901459 3.706815
									CHANNELS 3 Xrotation Yrotation Zrotation
									JOINT RightHandIndex2
									{
										OFFSET -3.283112 0.000000 0.000000
										CHANNELS 3 Xrotation Yrotation Zrotation
										JOINT RightHandIndex3
										{
											OFFSET -3.323853 0.000000 0.000000
											CHANNELS 3 Xrotation Yrotation Zrotation
											End Site
											{
												OFFSET 1.135597 3.097809 0.402452
											}
										}
									}
								}
								JOINT RightHandMiddle1
								{
									OFFSET -11.335861 0.000000 0.000000
									CHANNELS 3 Xrotation Yrotation Zrotation
									JOINT RightHandMiddle2
									{
										OFFSET -3.410492 0.000000 0.000000
										CHANNELS 3 Xrotation Yrotation Zrotation
										JOINT RightHandMiddle3
										{
											OFFSET -3.312172 0.000000 0.000000
											CHANNELS 3 Xrotation Yrotation Zrotation
											End Site
											{
												OFFSET 1.150200 3.080154 0.400270
											}
										}
									}
								}
								JOINT RightHandRing1
								{
									OFFSET -11.514786 -0.013176 -3.003090
									CHANNELS 3 Xrotation Yrotation Zrotation
									JOINT RightHandRing2
									{
										OFFSET -3.053307 0.000000 0.000000
										CHANNELS 3 Xrotation Yrotation Zrotation
										JOINT RightHandRing3
										{
											OFFSET -3.295807 0.000000 0.000000
											CHANNELS 3 Xrotation Yrotation Zrotation
											End Site
											{
												OFFSET 1.281006 3.013344 0.375733
											}
										}
									}
								}
								JOINT RightHandPinky1
								{
									OFFSET -10.518692 -0.960396 -5.730441
									CHANNELS 3 Xrotation Yrotation Zrotation
									JOINT RightHandPinky2
									{
										OFFSET -2.861649 0.000000 0.000000
										CHANNELS 3 Xrotation Yrotation Zrotation
										JOINT RightHandPinky3
										{
											OFFSET -2.863380 0.000000 0.000000
											CHANNELS 3 Xrotation Yrotation Zrotation
											End Site
											{
												OFFSET 0.843597 2.711159 0.369971
											}
										}
									}
								}
							}
							JOINT RSleeve
							{
								OFFSET -6.676277 -0.344902 -1.011730
								CHANNELS 3 Xrotation Yrotation Zrotation
								End Site
								{
									OFFSET 0.000000 14.885353 0.000000
								}
							}
						}
					}
				}
				JOINT Backpack
				{
					OFFSET 0.000000 -2.471497 36.677502
					CHANNELS 3 Xrotation Yrotation Zrotation
					End Site
					{
						OFFSET 0.000000 20.427315 0.000000
					}
				}
				JOINT Hood
				{
					OFFSET 0.000000 18.754097 -10.431000
					CHANNELS 3 Xrotation Yrotation Zrotation
					JOINT Hood1
					{
						OFFSET 0.000000 -5.011002 -7.685901
						CHANNELS 3 Xrotation Yrotation Zrotation
						End Site
						{
							OFFSET 0.000000 9.175140 0.000000
						}
					}
				}
				JOINT LHoodieString
				{
					OFFSET 5.250500 16.397697 3.089900
					CHANNELS 3 Xrotation Yrotation Zrotation
					JOINT LHoodieString1
					{
						OFFSET 0.257700 -6.364304 3.694600
						CHANNELS 3 Xrotation Yrotation Zrotation
						JOINT LHoodieString2
						{
							OFFSET 0.000000 -9.643799 2.679100
							CHANNELS 3 Xrotation Yrotation Zrotation
							End Site
							{
								OFFSET 0.000000 10.009018 0.000000
							}
						}
					}
				}
				JOINT RHoodieString
				{
					OFFSET -5.250500 16.397697 3.089900
					CHANNELS 3 Xrotation Yrotation Zrotation
					JOINT RHoodieString1
					{
						OFFSET -0.257700 -6.364304 3.694600
						CHANNELS 3 Xrotation Yrotation Zrotation
						JOINT RHoodieString2
						{
							OFFSET 0.000000 -9.643799 2.679100
							CHANNELS 3 Xrotation Yrotation Zrotation
							End Site
							{
								OFFSET 0.000000 10.009018 0.000000
							}
						}
					}
				}
			}
			JOINT LBackpack_Strap
			{
				OFFSET 15.223200 -7.719803 -6.610900
				CHANNELS 3 Xrotation Yrotation Zrotation
				End Site
				{
					OFFSET 0.000000 16.040596 0.000000
				}
			}
			JOINT RBackpack_Strap
			{
				OFFSET -15.223000 -7.719803 -6.610900
				CHANNELS 3 Xrotation Yrotation Zrotation
				End Site
				{
					OFFSET 0.000000 16.040596 0.000000
				}
			}
		}
	}
	JOINT BoyFacialAnim_Joint
	{
		OFFSET 1.000000 -82.208099 -1.550900
		CHANNELS 3 Xrotation Yrotation Zrotation
		End Site
		{
			OFFSET 0.000000 30.012791 0.000000
		}
	}
}
MOTION
Frames: 4
Frame Time: 0.033333
-3.893221 84.988487 60.219585 -2.863001 15.973389 -0.359354 -0.000000 -0.000001 0.000000 -11.971407 -5.103992 3.500024 27.507685 -8.104835 -0.604971 19.211553 -4.908013 1.706110 -0.000004 0.000000 0.000000 -0.000004 0.000000 0.000000 0.000001 -0.000000 0.000000 -11.526357 12.771099 -5.118503 17.233940 26.109735 7.616743 19.930331 -8.525936 3.374142 0.000002 -0.000001 0.000001 0.000002 -0.000001 0.000001 -0.000000 -0.000003 0.000000 1.937330 -0.263948 1.128257 -1.881672 -0.495866 0.730462 -1.874995 -0.478333 0.773107 -2.591459 -5.566339 -3.452392 0.846876 -4.841911 0.280303 0.000000 -0.000000 -0.000000 0.000000 -0.000000 -0.000000 0.000000 -0.000000 -0.000000 2.419415 -3.827672 -3.165969 3.486230 6.086317 -76.738282 6.340462 -14.399917 0.795639 -1.249490 -0.022195 5.091530 9.712660 -2.169941 19.097889 -7.411750 18.518803 -5.512956 0.000001 -0.000001 0.000001 1.294808 -3.553219 -1.435736 -1.805158 2.311796 -11.447338 0.000000 -0.000000 -0.000004 -1.842593 5.352672 -2.849459 0.191389 4.796150 -16.451720 0.000001 0.000000 -0.000003 -3.926014 10.722218 -4.616627 3.450980 3.981470 -26.389047 -0.000000 0.000000 -0.000004 -5.633833 17.001208 -12.568007 9.197032 2.717760 -27.024303 -0.000001 0.000001 -0.000002 -0.000000 0.000001 -0.000000 0.015572 -1.484373 3.394995 2.549071 4.227870 72.932125 -1.685092 12.725912 -2.068320 -1.632554 0.467857 5.407244 15.673223 -1.711766 -16.988200 -0.331330 -33.594166 7.607181 -0.000001 0.000001 0.000001 2.292918 -2.934934 6.448162 -6.491447 4.892266 31.510391 -0.000000 0.000003 0.000001 -1.988925 -5.669860 11.012443 -0.962616 -0.545095 48.164325 0.000001 0.000003 0.000005 -4.973850 -10.105079 9.154234 4.019333 -4.060276 49.731727 -0.000001 0.000001 0.000002 -6.477248 -11.321141 19.940698 10.719631 -2.592217 48.471626 -0.000000 -0.000002 -0.000007 0.000000 -0.000003 0.000000 -0.000000 0.000000 -0.000000 -0.000000 0.000000 -0.000000 -0.000000 0.000000 -0.000000 -0.000000 0.000000 -0.000000 -0.000000 0.000000 -0.000000 0.000000 -0.000002 -0.000000 -0.000000 0.000000 -0.000000 -0.000000 0.000000 -0.000000 0.000000 -0.000002 -0.000000 0.000000 0.000001 0.000000 0.000000 0.000001 0.000000 -0.000000 -0.000001 0.000000 
-4.642648 84.957726 60.985691 -3.296681 17.350221 -0.849614 -0.000000 -0.000002 -0.000000 -12.229022 -1.905454 5.852489 27.975111 -12.257190 -0.971172 19.025372 -4.020310 1.582910 -0.000002 -0.000000 0.000000 -0.000002 -0.000000 -0.000000 -0.000000 -0.000000 -0.000000 -11.130294 7.131892 -4.458345 17.957105 27.279938 7.362830 19.662841 -6.952677 0.961602 -0.000002 -0.000001 0.000000 -0.000002 -0.000001 0.000000 -0.000000 0.000001 0.000000 2.160638 -0.004634 1.023603 -1.685112 -0.365051 1.179257 -1.681299 -0.332742 1.216369 -2.258400 -6.511606 -3.741710 0.323212 -5.808408 -0.203423 -0.000000 -0.000000 0.000000 -0.000000 -0.000000 0.000000 -0.000000 -0.000000 0.000000 2.478579 -4.123185 -2.945251 4.887796 6.512196 -77.518747 6.055837 -14.353644 0.796711 -1.305538 0.130143 5.734314 9.323385 -2.288293 18.148572 -7.028996 18.428214 -4.954785 0.000001 0.000000 0.000003 1.246529 -3.532976 -1.081360 -1.713321 2.355128 -11.972394 -0.000000 0.000000 -0.000005 -1.765843 5.445709 -3.617336 0.232120 4.854831 -17.141519 0.000001 0.000000 -0.000001 -3.704435 10.870955 -5.613509 3.402837 4.048610 -27.082369 -0.000001 0.000000 -0.000002 -5.543905 17.423159 -13.859073 8.944979 2.770091 -27.965603 0.000001 0.000000 -0.000000 -0.000000 0.000001 0.000001 0.010398 -1.195658 3.145362 2.537214 4.356638 72.571921 -1.611618 12.877196 -2.000030 -1.599620 0.409351 4.508376 15.674514 -1.722186 -16.989725 -0.348661 -33.571336 7.603986 0.000003 0.000001 0.000003 2.293971 -2.941918 6.465854 -6.435808 4.833174 31.387328 -0.000002 -0.000001 0.000002 -1.989510 -5.669217 11.035890 -0.935405 -0.582690 47.967688 0.000000 0.000002 -0.000007 -4.973415 -10.104462 9.168797 4.018015 -4.058789 49.577765 -0.000000 -0.000000 0.000004 -6.477581 -11.320471 19.971328 10.718805 -2.591726 48.344400 -0.000003 -0.000001 -0.000005 0.000001 -0.000000 -0.000001 -0.000000 0.000002 -0.000000 -0.000000 0.000002 -0.000000 -0.000000 0.000002 -0.000000 -0.000000 0.000002 -0.000000 -0.000000 0.000002 -0.000000 -0.000000 0.000002 0.000000 -0.000000 0.000002 -0.000000 -0.000000 0.000002 -0.000000 -0.000000 0.000002 0.000000 0.000000 0.000000 -0.000000 0.000000 0.000000 -0.000000 -0.000000 -0.000002 -0.000000 
-5.385473 84.937256 61.719570 -3.481130 18.399742 -1.490445 0.000000 0.000000 0.000000 -12.742636 1.855669 8.481460 28.067640 -16.806616 -1.357519 18.248751 -2.917643 1.381599 -0.000001 0.000000 -0.000000 -0.000001 0.000000 -0.000000 0.000000 0.000001 0.000000 -10.658541 3.079832 -3.409605 18.560544 27.471764 7.005585 19.126555 -5.707417 -1.530589 0.000001 0.000002 -0.000001 0.000001 0.000002 -0.000001 -0.000001 -0.000002 -0.000001 1.824259 0.365173 0.827185 -1.379162 -0.115416 1.699319 -1.380972 -0.071786 1.729050 -1.843103 -7.680839 -3.852642 -0.254809 -6.902126 -0.814438 -0.000001 -0.000000 0.000000 -0.000001 -0.000000 0.000000 -0.000001 -0.000000 0.000000 2.529793 -4.306968 -2.770535 6.250665 6.447964 -78.026435 6.476358 -14.112084 0.754400 -1.359274 0.076181 5.914605 8.884212 -2.405535 17.062501 -6.584978 18.332378 -4.318972 0.000002 -0.000001 0.000001 1.190999 -3.510954 -0.676243 -1.607389 2.402642 -12.572754 -0.000000 0.000000 -0.000004 -1.675077 5.549442 -4.495569 0.280425 4.920653 -17.930134 0.000002 -0.000000 0.000000 -3.444466 11.032001 -6.755496 3.349681 4.126759 -27.874767 -0.000001 0.000000 -0.000002 -5.416118 17.903780 -15.340480 8.658554 2.840132 -29.041630 -0.000002 0.000001 -0.000004 -0.000000 0.000000 0.000002 0.005047 -1.147751 3.303508 2.633956 4.353284 71.748337 -1.542286 13.475897 -1.887186 -1.527661 0.191871 2.831107 15.675936 -1.736035 -16.993144 -0.371509 -33.539931 7.599631 -0.000000 -0.000002 -0.000003 2.295255 -2.950878 6.489968 -6.360544 4.752413 31.219753 0.000000 0.000000 0.000002 -1.990046 -5.668735 11.067776 -0.898876 -0.634076 47.699965 0.000001 0.000002 -0.000003 -4.973012 -10.103936 9.188638 4.016706 -4.059252 49.368232 -0.000001 0.000001 0.000006 -6.477752 -11.319935 20.013014 10.718475 -2.590955 48.171091 -0.000001 -0.000001 0.000000 0.000002 -0.000000 -0.000001 0.000000 0.000000 0.000000 0.000000 0.000000 0.000000 0.000000 0.000000 0.000000 0.000000 0.000000 0.000000 0.000000 0.000000 0.000000 0.000000 0.000002 0.000000 0.000000 0.000000 0.000000 0.000000 0.000000 0.000000 0.000000 0.000002 0.000000 0.000000 -0.000000 -0.000000 0.000000 -0.000000 -0.000000 0.000000 0.000000 0.000000 
-6.103779 84.849686 62.325710 -3.192004 19.262534 -2.332664 -0.000000 0.000002 0.000000 -14.396669 5.336399 11.105568 28.559529 -20.465922 -1.684288 17.614395 -1.863982 1.054422 -0.000002 -0.000001 0.000000 -0.000002 -0.000001 0.000000 -0.000001 0.000001 -0.000000 -10.732829 -0.312938 -2.196969 19.224758 27.670915 6.329553 18.998149 -4.405077 -2.966485 0.000002 -0.000001 0.000000 0.000002 -0.000001 0.000000 0.000001 -0.000003 -0.000000 1.234352 0.812446 0.654191 -1.350145 0.236495 2.162878 -1.360321 0.283732 2.183763 -1.440498 -8.788384 -3.883709 -0.380998 -7.958139 -1.215195 -0.000000 0.000000 -0.000000 -0.000000 0.000000 -0.000000 -0.000000 0.000000 -0.000000 2.577238 -4.262187 -2.782768 7.370848 6.381191 -78.234394 8.095559 -13.547365 0.981881 -1.422558 -0.084315 5.328462 8.405087 -2.513165 15.857729 -6.084747 18.235806 -3.616956 -0.000001 0.000001 -0.000003 1.129022 -3.487898 -0.227160 -1.488780 2.452674 -13.238525 -0.000001 -0.000001 0.000002 -1.570689 5.661097 -5.469743 0.335985 4.991988 -18.804481 0.000001 -0.000001 0.000004 -3.148279 11.199088 -8.024375 3.293154 4.215090 -28.753129 0.000002 0.000001 -0.000004 -5.243152 18.433315 -16.990116 8.343564 2.930484 -30.234314 -0.000000 0.000001 -0.000000 -0.000001 -0.000000 0.000001 0.015767 -1.338170 3.815233 2.924069 4.032524 70.625577 -1.477732 14.464829 -1.736743 -1.507366 0.050100 1.769480 15.677922 -1.753320 -16.997213 -0.400258 -33.500811 7.594336 0.000002 0.000001 -0.000000 2.296728 -2.962294 6.520001 -6.267165 4.650965 31.010544 0.000001 0.000001 0.000002 -1.990543 -5.668343 11.107631 -0.854013 -0.698731 47.365337 0.000002 0.000001 -0.000000 -4.972671 -10.103464 9.213279 4.015890 -4.059478 49.106478 0.000000 0.000002 0.000006 -6.478004 -11.319506 20.065030 10.719126 -2.589930 47.954533 -0.000002 -0.000002 -0.000002 -0.000002 -0.000001 -0.000000 0.000001 0.000000 -0.000000 0.000001 0.000000 -0.000000 0.000001 0.000000 -0.000000 0.000001 0.000000 -0.000000 0.000001 0.000000 0.000000 0.000001 -0.000001 -0.000000 0.000001 0.000000 -0.000000 0.000001 0.000000 0.000000 0.000001 -0.000001 -0.000000 -0.000000 0.000002 0.000000 -0.000000 0.000002 0.000000 -0.000000 0.000002 0.000000 
